<svg xmlns="http://www.w3.org/2000/svg" xmlns:xlink="http://www.w3.org/1999/xlink" width="875.476" height="584.989" viewBox="0 0 875.476 584.989"><defs><style>.a{fill:#cccfed;mix-blend-mode:multiply;isolation:isolate;}.b{fill:#50bfa5;}.c{fill:#f7cc7f;}.d{fill:#fae0b2;}.e{fill:#96d9c9;}.f{fill:#f48c7f;}.g{fill:#86b1f2;}.h{fill:#fff;}.i{fill:#466eb6;}.j{fill:#355389;}.k{fill:#b75742;}.l{fill:#f47458;}.m{fill:#9bc1f9;}.n{fill:url(#a);}.o{fill:url(#b);}.p{fill:#111c49;}.q{fill:url(#c);}.r{fill:url(#d);}.s{fill:url(#e);}.t{fill:url(#f);}.u{fill:url(#g);}.am,.v{fill:#040505;}.v{opacity:0.06;}.w{fill:url(#h);}.x{fill:url(#i);}.y{fill:url(#j);}.z{fill:url(#k);}.aa{fill:url(#l);}.ab{fill:url(#m);}.ac{fill:url(#n);}.ad{fill:url(#o);}.ae{fill:url(#p);}.af{fill:url(#q);}.ag{fill:url(#r);}.ah{fill:url(#s);}.ai{fill:url(#t);}.aj{fill:url(#u);}.ak{fill:url(#v);}.al{fill:url(#w);}.am{opacity:0.09;}</style><linearGradient id="a" x1="-0.003" y1="0.981" x2="0.65" y2="0.194" gradientUnits="objectBoundingBox"><stop offset="0" stop-color="#e0164a"/><stop offset="0.999" stop-color="#10295e"/></linearGradient><linearGradient id="b" x1="0.551" y1="0.182" x2="0.279" y2="1.885" xlink:href="#a"/><linearGradient id="c" x1="0.194" y1="-0.139" x2="1.167" y2="1.702" gradientUnits="objectBoundingBox"><stop offset="0" stop-color="#101c47"/><stop offset="0.999" stop-color="#10295e"/></linearGradient><linearGradient id="d" x1="2.058" y1="0.479" x2="0.304" y2="0.504" xlink:href="#c"/><linearGradient id="e" x1="-2.24" y1="-0.702" x2="0.684" y2="0.554" gradientUnits="objectBoundingBox"><stop offset="0" stop-color="#417298"/><stop offset="0.999" stop-color="#10295e"/></linearGradient><linearGradient id="f" x1="-4.506" y1="-0.829" x2="0.552" y2="0.473" xlink:href="#e"/><radialGradient id="g" cx="-1.302" cy="0.487" r="2.151" gradientTransform="translate(-0.426) scale(1.851 1)" gradientUnits="objectBoundingBox"><stop offset="0" stop-color="#fff2bf"/><stop offset="0.999" stop-color="#d53334"/></radialGradient><radialGradient id="h" cx="-1.635" cy="0.273" r="3.737" gradientTransform="translate(-0.404) scale(1.808 1)" xlink:href="#g"/><linearGradient id="i" x1="-1.181" y1="-1.23" x2="2.106" y2="1.769" xlink:href="#a"/><radialGradient id="j" cx="1.759" cy="-0.126" r="2.9" gradientTransform="translate(-0.378) scale(1.756 1)" xlink:href="#g"/><linearGradient id="k" x1="-0.742" y1="-0.029" x2="3.248" y2="1.386" gradientUnits="objectBoundingBox"><stop offset="0" stop-color="#c5d4ed"/><stop offset="0.999" stop-color="#8f9fbd"/></linearGradient><linearGradient id="l" x1="2.158" y1="-0.82" x2="-2.217" y2="2.531" xlink:href="#e"/><linearGradient id="m" x1="-116.666" y1="-0.82" x2="-121.042" y2="2.531" xlink:href="#e"/><linearGradient id="n" x1="-7.931" y1="-0.604" x2="16.933" y2="2.651" xlink:href="#a"/><linearGradient id="o" x1="-6.928" y1="-0.001" x2="4.769" y2="0.843" xlink:href="#a"/><radialGradient id="p" cx="1.134" cy="0.53" r="1.601" gradientTransform="matrix(0.317, -0.914, -0.712, -0.406, 118.59, 208.514)" xlink:href="#g"/><linearGradient id="q" x1="-0.239" y1="-0.028" x2="0.729" y2="0.717" xlink:href="#e"/><linearGradient id="r" x1="-1.208" y1="-1.593" x2="0.796" y2="0.864" xlink:href="#e"/><linearGradient id="s" x1="-0.299" y1="-0.07" x2="3.378" y2="2.731" gradientUnits="objectBoundingBox"><stop offset="0" stop-color="#417298"/><stop offset="0.999" stop-color="#3a65ae"/></linearGradient><radialGradient id="t" cx="-0.134" cy="0.53" r="1.601" gradientTransform="matrix(-0.317, -0.914, 0.712, -0.406, -22.47, 222.311)" xlink:href="#g"/><linearGradient id="u" x1="3.877" y1="0.465" x2="0.389" y2="0.5" xlink:href="#e"/><linearGradient id="v" x1="-8.776" y1="-1.593" x2="-6.772" y2="0.864" xlink:href="#e"/><linearGradient id="w" x1="-39.954" y1="-0.07" x2="-36.277" y2="2.731" xlink:href="#s"/></defs><g transform="translate(-1207.524 -159.011)"><ellipse class="a" cx="386.5" cy="15" rx="386.5" ry="15" transform="translate(1310 714)"/><g transform="translate(92.531 -222.562)"><path class="b" d="M1545.264,656l-3.788,1.163-2.544-5.889-5.749,1.017-2.624-4.1-2.073,1.328L1532,655l5.448-.964,2.647,6.126,5.7-1.749Z" transform="translate(-285.544 -153.255)"/><path class="b" d="M2444.176,1439.707l-3.789,1.163-2.544-5.889-5.749,1.017-2.625-4.1-2.073,1.328,3.51,5.478,5.448-.963,2.647,6.126,5.7-1.75Z" transform="matrix(0.921, -0.391, 0.391, 0.921, -1634.193, 251.945)"/><g transform="translate(1278.972 381.573)"><path class="c" d="M1743.139,523.442c-9.085,1.495-11.783,13.418-4.23,18.752a6.932,6.932,0,0,1,2.695,4.01l1.375,5.546A3.021,3.021,0,0,0,1746.4,554l3.442-.566a3.021,3.021,0,0,0,2.52-3.231c-.478-5.726-1.068-7.8.793-10.357C1758.6,532.378,1752.225,521.946,1743.139,523.442Z" transform="translate(-1723.64 -509.187)"/><g transform="translate(15.439 21.011)"><path class="d" d="M1758.694,569.817c-.591-4.906-1.422-10.085-1.7-11.554-5.208.287-3.228-5.2-.825-2.97a4.549,4.549,0,0,1,1.221,2.444,13.461,13.461,0,0,0,4.961-1.445,6.391,6.391,0,0,1,.136-2.9c.51-1.169,1.992-1.488,2.6-.348a1.82,1.82,0,0,1,.1,1.428,4.629,4.629,0,0,1-2.316,2.107c.274,3.9.653,7.83,1.131,11.7l-.492.061c-.47-3.808-.846-7.674-1.118-11.512a13.964,13.964,0,0,1-4.9,1.4c.356,1.878,1.144,6.927,1.7,11.533Zm-4.177-12.711a2.914,2.914,0,0,0,2.369.666,4.029,4.029,0,0,0-1.059-2.116C1754.534,554.455,1753.741,556.269,1754.517,557.106Zm8.421-3.517a5.52,5.52,0,0,0-.111,2.443,3.915,3.915,0,0,0,1.888-1.729,1.123,1.123,0,0,0-.578-1.455C1764.077,552.832,1763.137,553.132,1762.938,553.588Z" transform="translate(-1753.707 -552.332)"/></g><path class="e" d="M1764.159,613.653c.012.046.029.091.04.137l1.375,5.546a3.021,3.021,0,0,0,3.422,2.254l3.442-.566a3.02,3.02,0,0,0,2.519-3.231c-.212-2.547-.447-4.372-.478-5.838Z" transform="translate(-1746.236 -576.774)"/><g transform="translate(9.926 3.687)"><path class="d" d="M1733.351,485.868l-2.717-4.959a.991.991,0,0,1,1.738-.952l2.717,4.959a.991.991,0,0,1-1.738.952Z" transform="translate(-1730.512 -479.443)"/></g><g transform="translate(0 19.612)"><path class="d" d="M1695.576,548.943l-5.921-.518a.991.991,0,1,1,.173-1.974l5.922.518a.991.991,0,1,1-.173,1.974Z" transform="translate(-1688.75 -546.447)"/></g><g transform="translate(0.668 34.813)"><path class="d" d="M1691.848,615.854a.991.991,0,0,1,.008-1.4,32.4,32.4,0,0,1,4.758-3.881.991.991,0,1,1,1.1,1.648,30.384,30.384,0,0,0-4.466,3.643A.991.991,0,0,1,1691.848,615.854Z" transform="translate(-1691.562 -610.405)"/></g><g transform="translate(26.66)"><path class="d" d="M1801.655,473.775a.991.991,0,0,1-.7-1.213,37.676,37.676,0,0,0,1.221-7.694.991.991,0,1,1,1.979.106,39.668,39.668,0,0,1-1.286,8.1A.991.991,0,0,1,1801.655,473.775Z" transform="translate(-1800.919 -463.931)"/></g><g transform="translate(33.451 14.324)"><path class="d" d="M1829.536,527.332a.991.991,0,0,1,.663-1.235l6.156-1.856a.991.991,0,0,1,.572,1.9L1830.771,528A.991.991,0,0,1,1829.536,527.332Z" transform="translate(-1829.494 -524.2)"/></g><g transform="translate(36.647 29.464)"><path class="d" d="M1849.9,592.272a.985.985,0,0,1-.269-.037,31.083,31.083,0,0,1-6.165-2.471.991.991,0,0,1,.93-1.75,29.127,29.127,0,0,0,5.771,2.313.991.991,0,0,1-.268,1.945Z" transform="translate(-1842.94 -587.898)"/></g></g><path class="c" d="M2215.4,713.165l-3.532-8.352-8.882-1.825a1.246,1.246,0,0,1-.565-2.162l6.852-5.94-1.009-9.011a1.246,1.246,0,0,1,1.881-1.206l7.766,4.68,8.259-3.744a1.246,1.246,0,0,1,1.729,1.417l-2.052,8.832,6.114,6.7a1.246,1.246,0,0,1-.814,2.081l-9.034.778-4.48,7.883A1.246,1.246,0,0,1,2215.4,713.165Z" transform="translate(-718.432 -183.189)"/><path class="f" d="M2401.084,684.566l-1.452,5.847-9.666-1.3-3.177,8.287-7.392.212.108,3.742,9.886-.283,3.011-7.853,10.055,1.349,2.185-8.8Z" transform="translate(-952.446 -149.927)"/><g transform="translate(1125.456 531.872)"><path class="c" d="M1265.964,823.949l-51.582-9.605a1.908,1.908,0,0,1-1.527-2.225l6.462-34.7a1.908,1.908,0,0,1,2.225-1.527l51.582,9.605a1.908,1.908,0,0,1,1.527,2.225l-6.462,34.7A1.908,1.908,0,0,1,1265.964,823.949Z" transform="translate(-1212.65 -772.292)"/><path class="c" d="M1271.995,774.647l-15.7-2.924a1.908,1.908,0,0,1-1.527-2.225l.984-5.28a1.907,1.907,0,0,1,2.225-1.526l15.7,2.924a1.908,1.908,0,0,1,1.526,2.225l-.983,5.28A1.908,1.908,0,0,1,1271.995,774.647Z" transform="translate(-1243.234 -762.659)"/><path class="d" d="M1267.845,832.244a1.908,1.908,0,0,1-2.186,1.357l-51.918-9.668a1.909,1.909,0,0,1-1.552-2.042l2.717-31.1a1.908,1.908,0,0,1,2.25-1.71l57.677,10.74a1.908,1.908,0,0,1,1.487,2.394Z" transform="translate(-1212.182 -781.914)"/></g><g transform="translate(1366.587 415.827)"><path class="b" d="M2264.553,504.576l-8.833,2.412-1.9-10.7,2.891-.514,1.339,7.539,5.732-1.565Z" transform="translate(-2253.818 -495.769)"/></g><g transform="translate(1201.157 415.331)"><path class="g" d="M1453.769,457.514,1408.4,473.7a2.811,2.811,0,0,1-3.592-1.7l-8.373-23.473a2.811,2.811,0,0,1,1.7-3.592l45.365-16.182a2.811,2.811,0,0,1,3.592,1.7l8.373,23.473A2.812,2.812,0,0,1,1453.769,457.514Z" transform="translate(-1396.275 -428.582)"/><path class="h" d="M1458.79,511.083a8.99,8.99,0,1,1-11.488-5.447A8.99,8.99,0,0,1,1458.79,511.083Z" transform="translate(-1431.365 -488.184)"/><path class="g" d="M1469.682,520.221a2.651,2.651,0,1,1-3.387-1.606A2.651,2.651,0,0,1,1469.682,520.221Z" transform="translate(-1449.436 -498.58)"/><path class="g" d="M4.091,0H4.38A4.092,4.092,0,0,1,8.472,4.092v0a0,0,0,0,1,0,0H0a0,0,0,0,1,0,0v0A4.091,4.091,0,0,1,4.091,0Z" transform="translate(15.212 28.026) rotate(-19.632)"/><g transform="translate(27.397 8.624)"><path class="h" d="M1521.287,476.941a1.147,1.147,0,0,1-.385-2.226l19.831-7.074a1.147,1.147,0,0,1,.77,2.16l-19.831,7.074A1.14,1.14,0,0,1,1521.287,476.941Z" transform="translate(-1520.141 -467.574)"/></g><g transform="translate(32.75 15.117)"><path class="h" d="M1545.491,504.746a1.147,1.147,0,0,1-.385-2.227l15.488-5.525a1.147,1.147,0,0,1,.77,2.16l-15.488,5.525A1.145,1.145,0,0,1,1545.491,504.746Z" transform="translate(-1544.344 -496.928)"/></g></g><g transform="translate(1396.689 445.854)"><path class="i" d="M2005.434,460.248c2.358,1.882,6.459,7.937,11.692,12.188,3.061,2.486,5.418,1.854,9.326,2.326,18.539,2.241,13.515,6.03,15.739,6.4-.631,1.453-6.407,13.731-7.487,16.212a4.523,4.523,0,0,1-5.21,2.969c-3.833-.53-7.7-.924-11.476-1.743-9.676-2.1-15.06-6.937-21.993-12.814a4.535,4.535,0,0,1-1.339-5.708A157.449,157.449,0,0,1,2005.434,460.248Z" transform="translate(-1990.651 -456.252)"/><path class="g" d="M2036.133,486.851c-.083,4.04.226,4.851-1.509,4.238a24.4,24.4,0,0,1-3.043-1.359c-.7-.359-.723-.833-.157-1.4.823-.826,1.668-1.631,2.492-2.433a3.575,3.575,0,0,1,1.569-4.3c.3-.177.081.2,2.663-5.744-8.537-1.053-14.562-1.76-24.977-3.041a14.012,14.012,0,0,1-7.416-3.227q-11.16-9.337-22.313-18.681a2.058,2.058,0,0,1-.336-3.037,2.331,2.331,0,0,1,2.3-.655c2.378.3,25.685,3.193,28.051,3.47a15.324,15.324,0,0,1,8.252,3.548q10.964,9.181,21.955,18.328c1,.838,1.276,1.608.923,2.54a1.963,1.963,0,0,1-2.512,1.237c-.924-.2-1.332.079-1.65.934-1.435,3.864-2.437,4.72-2.091,6.131C2038.6,484.492,2037.3,486.377,2036.133,486.851Z" transform="translate(-1982.584 -447.169)"/></g><g transform="translate(1183.393 683.797) rotate(139)"><path class="i" d="M2284.428,1451.7l4.52,4.309a120.125,120.125,0,0,1,25.715,35.633l.693,1.467s11.834,1.046,13.487-9.654h0a178.811,178.811,0,0,1-25.984-38.162l-2.139-5Z" transform="translate(-2284.337 -1440.078)"/><path class="g" d="M2300.52,1439.835c.581.833-2.594,4.051-7.09,7.186s-8.633,5.042-9.214,4.209,2.614-4.089,7.11-7.225S2299.939,1439,2300.52,1439.835Z" transform="translate(-2284.147 -1439.637)"/><path class="j" d="M2308.126,1440.305l-.014-.016s-9.009,7.625-12.722,8.4l1.146,1.56a47.58,47.58,0,0,0,4.482-2.792C2305.462,1444.362,2308.615,1441.183,2308.126,1440.305Z" transform="translate(-2291.735 -1440.077)"/><g transform="translate(5.455 22.368)"><path class="k" d="M2350.988,1508.449c.016,1.314-.486,6.988-9.926,9.356q.932,1.269,1.831,2.56c5.975-1.766,8.662-4.834,9.87-7.169.19-.369.421-.865.575-1.249Q2352.142,1510.212,2350.988,1508.449Z" transform="translate(-2328.017 -1508.449)"/><path class="k" d="M2314.822,1531.04l-13.892-.5,3.292,2.794-1.967,3.57,13.148-3.352Z" transform="translate(-2300.93 -1523.361)"/><path class="k" d="M2337.314,1542.01l-4.937,8.6,3.472-1.322,1.337,2.731,2.32-9.043Z" transform="translate(-2322.155 -1531.101)"/><path class="l" d="M2343.5,1530.259a4.565,4.565,0,1,1,4.095-4.864A4.5,4.5,0,0,1,2343.5,1530.259Z" transform="translate(-2326.453 -1517.019)"/></g></g><g transform="translate(1483.238 575.23)"><path class="m" d="M2376.047,844.436l-24.324-21.7c-1.581-1.411-.922-4.313,1.258-5.547l19.413-10.992a3.033,3.033,0,0,1,3.543.166l24.324,21.7c1.58,1.411.923,4.313-1.258,5.547L2379.591,844.6A3.034,3.034,0,0,1,2376.047,844.436Z" transform="translate(-2350.852 -805.706)"/><g transform="translate(22.007 3.206)"><path class="h" d="M2434.315,835.827l-2.027-16.676a1.5,1.5,0,0,1,1.039-1.524.965.965,0,0,1,1.32.789l1.866,15.345,18.444,4.46a1.018,1.018,0,0,1,.619,1.449,1.43,1.43,0,0,1-1.562.921Z" transform="translate(-2432.28 -817.569)"/></g></g><path class="c" d="M1249.334,602.494l2.514,4.974,5.68-.184,2.424,5.775,5.99-2.061,3.029,6.409,5.749-1.218,3.923,5.69-2.154,1.485-2.933-4.254-6.067,1.285-2.912-6.161-6.09,2.1-2.674-6.372-5.547.179-2.331-4.61-3.618.88-.618-2.542Z" transform="translate(-77.725 -119.908)"/><path class="b" d="M2381.059,1056.12l5.163,2.1,4.162-3.87,5.621,2.762,3.162-5.489,6.494,2.843,3.535-4.7,6.7,1.714-.648,2.534-5.006-1.281-3.73,4.954-6.243-2.732-3.215,5.581-6.2-3.047-4.065,3.779-4.785-1.945-2.15,3.04-2.136-1.51Z" transform="translate(-848.363 -428.173)"/></g><g transform="translate(1215.378 141.083)"><g transform="translate(149.751 216.291)"><path class="n" d="M233.373,211.686s108.158,217.7,317.671,166.231c43.765-10.751,80.854,25.864,83.822,46.937s-69.728-53.249-113.493,11.213-64.536,40.514-107.56,27.1-13.352,47.9-43.765,46.938-53.134-81.423-87.394-56.517-38.389,70.458-71.878,34.4-86.622-106.2-54.037-276.2Z" transform="translate(-146.558 -211.686)"/><path class="o" d="M228.345,211.686S235.7,303.519,330.65,356.363s141.911,54.1,210.173,45.821,89.014,22.67,89.014,22.67-7.912-47.364-72.7-57.688-148.8,39.613-244.295-54.09C269.2,270.248,228.345,211.686,228.345,211.686Z" transform="translate(-141.53 -211.686)"/></g><g transform="translate(94.622 136.776)"><path class="p" d="M143.111,549.612s-6.727,8-22.924,10.459a1.527,1.527,0,0,0,0,2.665h22.924l5.144-2.361.9,2.361h5.166s2.361-7.792-1.973-13.124Z" transform="translate(-93.1 -111.396)"/><path class="p" d="M243.582,549.612s6.727,8,22.924,10.459a1.527,1.527,0,0,1,0,2.665H243.582l-5.144-2.361-.9,2.361h-5.166s-2.361-7.792,1.973-13.124Z" transform="translate(-86.193 -111.396)"/><path class="q" d="M238.054,458.42,232.3,346.408l-40.025-40.119V358.8l25.667,99.624c-17.853,45.553,17.028,106.635,17.028,106.635h12.558Z" transform="translate(-88.618 -126.355)"/><path class="r" d="M149.609,458.42l5.751-112.012,40.025-40.119V358.8L169.719,458.42c17.853,45.553-17.029,106.635-17.029,106.635l-10.953-.484Z" transform="translate(-91.725 -126.355)"/><path class="s" d="M182.351,196.95,144.827,212.7l21.8,92.152-16.018,50.238s38.161-9.686,44.583-36.507V196.95Z" transform="translate(-91.535 -133.077)"/><path class="t" d="M205.122,196.95,242.181,212.7,220.71,306.127l16.6,51.249s-38.613-11.975-45.035-38.8V196.95Z" transform="translate(-88.618 -133.077)"/><g transform="translate(75.094)"><path class="u" d="M196.211,158.557l7.7,40.754L181.1,200.787l.913-28.645Z" transform="translate(-164.399 -135.437)"/><path class="v" d="M181.772,178.953l-.293,9.268s16.616-7.992,17.02-17.442l-2.311-12.222Z" transform="translate(-164.376 -135.437)"/><path class="w" d="M196.327,153.993s4.067,27.624-21.069,27.255V143.174S191.891,139.306,196.327,153.993Z" transform="translate(-164.758 -136.411)"/><path class="x" d="M195.735,144.648s-5.416-7.625-14.387-7.812v-.006s-5.175-.807-12.26,3.875l2.588.432s-2.773,3.573-5.607-.309c0,0-3.389,7.79,4.713,7.7h5.083l14.662-.432,2.342,5.791V166.7h1.848l.863-11.459,3.908,16.873C205.185,145.25,195.735,144.648,195.735,144.648Z" transform="translate(-165.366 -136.776)"/><path class="y" d="M193.87,154.062s3.062-1.613,4.435.493c1.564,2.4-1.293,7.97-5.112,8.658Z" transform="translate(-163.656 -135.75)"/></g><path class="z" d="M180.178,196.95l12.844,97.659,12.844-97.659Z" transform="translate(-89.362 -133.077)"/><path class="aa" d="M204.685,194.771l-12.407,2.314,7.45,8.117,5.394-8.117Z" transform="translate(-88.618 -133.211)"/><path class="ab" d="M180.615,194.771l12.407,2.314-7.45,8.117-5.394-8.117Z" transform="translate(-89.362 -133.211)"/><g transform="translate(97.409 63.874)"><path class="ac" d="M198.708,203.562l-6.068-6.611-6.029,6.569,3.2,7.583-3.418,35.979,6.251,47.527,6.251-47.527L195.473,211.1Z" transform="translate(-186.389 -196.951)"/><path class="ad" d="M192.278,294.609V196.951l6.068,6.611-3.235,7.541,3.418,35.979Z" transform="translate(-186.027 -196.951)"/></g><g transform="translate(0 79.621)"><path class="ae" d="M150.961,297.242s5.6-3.23,10.288-1.147l4.684,2.084a3.522,3.522,0,0,1-4.139.516l8.134,3.619L165.1,313.179s-3.279,1.823-7.963-.261l-10.972-4.881Z" transform="translate(-91.453 -206.646)"/><path class="af" d="M147.882,211.786,95.128,279.549l27.567,2.038,34.088-32.181Z" transform="translate(-94.591 -211.786)"/><path class="ag" d="M102.016,267.35c.487-.626,17.41-4.053,52.853,29.794l-5.541,12.642S88.3,284.965,95.159,276.157Z" transform="translate(-94.622 -208.394)"/><path class="ah" d="M151.973,295.581l-5.541,12.642-4.7-1.991,6.772-13.858Z" transform="translate(-91.725 -206.832)"/></g><g transform="translate(128.38 79.621)"><path class="ai" d="M234.534,297.242s-5.6-3.23-10.288-1.147l-4.683,2.084a3.52,3.52,0,0,0,4.138.516l-8.134,3.619,4.833,10.866s3.279,1.823,7.963-.261l10.972-4.881Z" transform="translate(-215.566 -206.646)"/><path class="aj" d="M239.807,211.786l52.754,67.763-27.567,2.038-34.088-32.181Z" transform="translate(-214.623 -211.786)"/><path class="ak" d="M285.591,267.35c-.487-.626-17.41-4.053-52.853,29.794l5.541,12.642s61.026-24.821,54.169-33.629Z" transform="translate(-214.51 -208.394)"/><path class="al" d="M232.738,295.581l5.541,12.642,4.7-1.991L236.2,292.374Z" transform="translate(-214.51 -206.832)"/></g><path class="am" d="M230.906,248.391l4.753-20.09,25.677,48.818Z" transform="translate(-86.243 -131.149)"/></g></g></g></svg>